<?xml version="1.0" encoding="UTF-8"?>
<svg id="Layer_2" data-name="Layer 2" xmlns="http://www.w3.org/2000/svg" viewBox="0 0 262.93 62">
  <defs>
    <style>
      .cls-1 {
        font-family: Gotham-Medium, Gotham;
        font-size: 6px;
        font-weight: 500;
        letter-spacing: .18em;
        fill: #e2e8f0;
      }

      .cls-2, .cls-3 {
        fill: #086eec;
      }

      .cls-2, .cls-4 {
        fill-rule: evenodd;
      }

      .cls-5 {
        fill: #e2e8f0;
      }

      .cls-4, .cls-6 {
        fill: #4eb525;
      }
    </style>
  </defs>
  <g id="Layer_1-2" data-name="Layer 1">
    <path class="cls-2" d="M42.18,5.74H4.7C2.12,5.74,0,7.87,0,10.48v34.17c0,2.61,2.12,4.74,4.7,4.74h16.21l7.22,12.61,7.22-12.61h16.21c2.59,0,4.7-2.13,4.7-4.74v-23.83h-3.51v23.83c0,.65-.54,1.2-1.19,1.2h-18.24l-5.19,9.07-5.19-9.07H4.7c-.65,0-1.19-.55-1.19-1.2V10.48c0-.65.54-1.2,1.19-1.2h37.48v-3.54Z"/>
    <path class="cls-4" d="M56.09,10.92c-12.85,13.06-28.25,21.01-46.9,22.37,16.07-5.12,30.42-12.92,41.02-26.58l-4.13-2.96,13.62-3.75-.08,13.45-3.53-2.53Z"/>
    <path class="cls-5" d="M227.15,46.77v-2.41h-2.52v.88h1.52v1.08c-.18.13-.39.24-.64.32-.25.08-.51.12-.79.12-.3,0-.58-.05-.83-.16-.25-.1-.46-.25-.64-.43-.18-.18-.32-.4-.41-.65-.1-.25-.14-.53-.14-.82,0-.28.05-.54.15-.79.1-.25.23-.46.41-.65.17-.19.37-.33.61-.44.23-.11.49-.16.76-.16.19,0,.36.02.51.05.16.03.3.07.43.12.13.05.25.12.37.19.12.08.23.16.35.25l.66-.76c-.15-.12-.31-.23-.47-.33-.16-.1-.33-.18-.51-.24-.18-.06-.38-.12-.59-.15-.21-.04-.45-.05-.71-.05-.45,0-.85.08-1.23.24-.38.16-.7.37-.97.64-.27.27-.48.58-.63.95-.15.36-.22.74-.22,1.15s.07.81.22,1.17c.15.36.36.67.62.94.27.27.59.47.97.62.38.15.8.23,1.26.23.26,0,.51-.02.75-.07.24-.05.46-.11.66-.19.21-.08.4-.18.58-.29.18-.11.34-.23.49-.35ZM216.44,45.8l-3.17-3.96h-.96v5.73h1.03v-4.08l3.26,4.08h.87v-5.73h-1.03v3.96ZM206.82,41.84v5.73h1.03v-5.73h-1.03ZM200.92,42.77h1.88v-.93h-4.81v.93h1.88v4.79h1.05v-4.79ZM194.26,41.84h-4.39v5.73h4.43v-.91h-3.4v-1.53h2.97v-.91h-2.97v-1.47h3.35v-.91ZM183.54,44.3l2.46-2.46h-1.28l-2.82,2.88v-2.88h-1.03v5.73h1.03v-1.66l.92-.92,2.02,2.58h1.26l-2.57-3.26ZM175.67,43.71c0,.3-.11.53-.33.71-.22.18-.52.26-.89.26h-1.53v-1.93h1.52c.39,0,.69.08.91.24.22.16.33.4.33.72ZM176.91,47.56l-1.6-2.17c.21-.06.4-.13.57-.23.17-.1.32-.22.44-.37.12-.14.22-.31.29-.5.07-.19.11-.4.11-.64,0-.28-.05-.53-.15-.76-.1-.23-.25-.42-.44-.57-.19-.16-.42-.27-.69-.36-.28-.09-.58-.13-.92-.13h-2.64v5.73h1.03v-2h1.31l1.46,2h1.23ZM165.92,45.29h-2.04l1.01-2.29,1.03,2.29ZM165.4,41.8h-.97l-2.61,5.77h1.07l.61-1.38h2.8l.6,1.38h1.1l-2.61-5.77ZM156.91,43.46v4.11h1.03v-5.73h-1.11l-1.8,2.71-1.8-2.71h-1.11v5.73h1.03v-4.09l1.86,2.69h.03l1.87-2.7ZM143.73,42.77h1.88v-.93h-4.81v.93h1.88v4.79h1.05v-4.79ZM135.8,45.8l-3.17-3.96h-.96v5.73h1.03v-4.08l3.26,4.08h.87v-5.73h-1.03v3.96ZM127.52,41.84h-4.39v5.73h4.43v-.91h-3.4v-1.53h2.97v-.91h-2.97v-1.47h3.35v-.91ZM117.29,42.77h1.88v-.93h-4.81v.93h1.88v4.79h1.05v-4.79ZM109.36,45.8l-3.17-3.96h-.96v5.73h1.03v-4.08l3.26,4.08h.87v-5.73h-1.03v3.96ZM100.01,44.71c0,.28-.05.54-.15.79-.1.25-.24.46-.41.65-.17.18-.39.33-.63.43-.24.1-.51.16-.81.16s-.57-.05-.81-.16c-.25-.11-.46-.26-.64-.44-.18-.19-.32-.4-.42-.65-.1-.25-.15-.51-.15-.79s.05-.54.15-.79c.1-.25.24-.46.41-.65.18-.18.39-.33.63-.43.24-.11.51-.16.81-.16s.57.06.81.16c.25.11.46.26.64.44.18.19.32.4.42.65.1.25.15.51.15.79ZM101.11,44.69c0-.4-.08-.79-.23-1.15-.15-.36-.36-.67-.64-.94-.27-.27-.6-.48-.97-.64-.38-.16-.79-.23-1.25-.23s-.87.08-1.25.24c-.38.16-.71.37-.98.64-.28.27-.49.58-.64.95-.15.36-.23.74-.23,1.15s.08.78.23,1.15c.15.36.36.67.64.94.27.27.6.48.97.64.38.15.79.23,1.25.23s.87-.08,1.25-.24c.38-.16.71-.37.98-.64.28-.27.49-.58.64-.95.15-.36.23-.74.23-1.15ZM91.38,46.65l-.67-.65c-.25.23-.51.41-.77.54-.26.13-.57.2-.93.2-.28,0-.54-.05-.78-.16-.24-.11-.45-.25-.62-.44-.17-.19-.31-.4-.41-.65-.09-.25-.14-.51-.14-.8s.05-.55.14-.79c.09-.25.23-.46.41-.64.17-.18.38-.33.62-.43.24-.11.5-.16.78-.16.34,0,.64.07.91.2.27.13.52.3.75.51l.67-.74c-.14-.13-.29-.25-.45-.36-.16-.11-.33-.2-.52-.28-.19-.08-.39-.14-.61-.18-.22-.04-.47-.07-.74-.07-.45,0-.86.08-1.24.23-.37.16-.69.37-.97.64-.27.27-.48.58-.63.95-.15.36-.22.74-.22,1.15s.08.8.23,1.16c.15.36.36.67.63.94.27.27.59.47.95.63.37.15.77.23,1.2.23.28,0,.53-.02.76-.07.23-.05.44-.12.63-.2.19-.09.37-.2.54-.32.16-.12.32-.27.48-.42ZM80.81,45.8l-3.17-3.96h-.96v5.73h1.03v-4.08l3.26,4.08h.87v-5.73h-1.03v3.96ZM71.19,41.84v5.73h1.03v-5.73h-1.03Z"/>
    <path class="cls-6" d="M232.51,7c2.18-.28.88,8.38-6.05,17.99.35-7.28,3.97-17.74,6.05-17.99ZM243.83,7c2.18-.28.88,8.38-6.05,17.99.35-7.28,3.97-17.74,6.05-17.99ZM246.93,43.86c-3.06.39-2.36-3.29,3.83-6.04.77-.35,1.48-.71,2.15-1.02-1.48,3.82-3.45,6.71-5.98,7.07ZM261.52,27.01c-1.06,1.77-2.29,3.29-3.76,4.63,1.26-5.16,1.72-10.5,1.93-13.15.18-2.26-1.51-3.89-2.57-3.89-.56,0-.95.42-.77,1.48,0,.14.03.32.03.53-.42,7.63-4.71,16.36-7.66,16.36-3.13.03,2.21-10.43,2.6-13.54.28-2.19-1.69-4.03-2.67-4.03-.42,0-.67.32-.49,1.06.47,2.24-1.28,7.33-2.1,11.63-1.25,1.66-3.51,4.05-5.67,3.75-1.65-.21-2.43-1.94-2.6-4.42,9.7-11.84,10.83-22.51,6.57-22.83-5.19-.41-10.75,14.75-9.62,23.5-1.25,1.66-3.51,4.05-5.68,3.75-1.65-.21-2.43-1.94-2.6-4.42,9.7-11.84,10.83-22.51,6.58-22.83-5.2-.41-10.77,14.79-9.61,23.53-.71,1.31-2.37,3.83-3.25,3.89-1.62.07.7-9.43,1.65-12.9,1.34-4.88-2.14-3.99-2.14-3.99-.1.28-.18.6-.28.95-1.12,3.36-5.59,16.04-8.33,16.08-3.13,0,2.22-10.46,2.64-13.57.28-2.19-1.69-4.03-2.71-4.03-.39,0-.63.32-.49,1.06.88,4.21-6.08,18.52.1,18.66,2.43.07,4.5-2.9,6.15-6.5-.39,3.6.14,6.5,2.71,6.47,1.57,0,3.38-1.73,4.47-3.83.75,2.2,2.16,3.62,4.42,3.69,2.62.07,5.21-1.93,6.79-4.02.72,2.38,2.15,3.94,4.53,4.02,2.22.06,4.41-1.36,5.99-3.06-.11,2.36.46,4.04,2.55,4.09,3.38.07,5.73-3.89,7.28-8.41-.46,2.58-1.06,5.3-1.83,7.81-1.2.67-2.5,1.31-3.9,1.87-8.44,3.5-8.02,9.82-2.78,9.51,2.78-.14,5.1-2.51,6.4-4.13,1.58-1.98,2.74-4.7,3.65-7.6,1.9-1.52,3.58-3.43,5.59-6.22.56-.78.21-1.56-.32-1.56-.24,0-.56.18-.81.6ZM211.81,4.74c-3.65-.35-7.49.71-10.65,3.18-3.16,2.44-2.11,4.7-1.58,4.1.39-.42.84-.81,1.3-1.17-.56,3.32-1.37,7.35-2.15,11.13-.77-.11-1.69-.32-2.77-.67-1.3-.46-1.13,2.26,1.86,2.79.17,0,.32.04.49.04-.91,4.38-1.72,8.09-2.04,9.51-.6,2.76,1.41,5.3,2.32,5.3.32,0,.49-.28.46-.92-.21-2.23.88-8.27,2.22-14.45.7-.25,1.44-.46,2.28-.46s1.83.21,2.99.85c1.37.74,1.79-2.83-.95-3-1.62-.11-2.64.46-3.94.81,1.13-5.12,2.35-10.07,3.02-12.72,1.37-.39,2.81-.57,4.22-.57,2.53,0,4.82.64,6.01,1.94.14.14.28.21.39.21,1.16,0,1.76-5.37-3.48-5.9Z"/>
    <path class="cls-3" d="M192.69,29.16c-.92.5-2.13.86-2.95.86-1.56,0-2.59-.93-2.59-3.09v-7.08h5.79v-3.88h-5.79v-5.42h-4.69v5.42h-3.8v3.88h3.8v7.44c0,4.92,2.77,7.15,6.96,7.15,1.49,0,2.77-.32,4.62-1.33l-1.35-3.95ZM168.6,19.57c1.88,0,3.59,1.01,4.19,3.3h-8.56c.57-2.23,2.59-3.3,4.37-3.3ZM177.59,24.6c-.18-5.46-4.26-9.16-8.99-9.16-5.08,0-9.17,3.88-9.17,9.52s4.09,9.48,9.1,9.48c3.87,0,7.03-1.8,8.6-5.53l-4.19-.9c-1.28,2.19-3.02,2.37-4.4,2.37-2.17,0-3.98-1.58-4.44-4.17h13.5v-1.61ZM159.43,33.9l-9.49-9.34,8.56-8.59h-5.9l-6.36,6.25h-.85v-14.19h-4.69v25.87h4.69v-7h.82l6.96,7h6.25ZM136.52,15.73c-2.88,0-4.94,1.44-6.36,3.52v-3.27h-4.69v17.93h4.69v-5.78c0-4.99,1.99-7.69,6.32-7.69h1.03l.25-4.56c-.43-.15-.78-.15-1.24-.15ZM110.76,30.31c-2.84,0-4.97-2.05-4.97-5.35s2.13-5.39,4.97-5.39c2.52,0,5.04,2.08,5.04,5.39s-2.52,5.35-5.04,5.35ZM120.5,15.98h-4.69v1.44c-1.49-1.26-3.44-1.98-5.86-1.98-4.51,0-8.7,3.88-8.7,9.52s4.19,9.48,8.7,9.48c2.42,0,4.37-.72,5.86-1.94v1.4h4.69V15.98ZM97.69,9.83h-4.19l-9.06,16.63-9.02-16.63h-4.23v24.07h4.69v-13.83l7.5,13.83h2.17l7.46-13.83v13.83h4.69V9.83Z"/>
    <text class="cls-1" transform="translate(229.79 43.27)"><tspan x="0" y="0">TM</tspan></text>
  </g>
</svg>